HIERARCHY
ROOT hip
{
	OFFSET 0.000000 0.000000 0.000000 
	CHANNELS 6 Xposition Yposition Zposition Xrotation Zrotation Yrotation
	JOINT abdomen
	{
		OFFSET 0.000000 3.402643 0.000000 
		CHANNELS 3 Xrotation Zrotation Yrotation
		JOINT chest
		{
			OFFSET 0.000000 8.438565 -0.680529 
			CHANNELS 3 Xrotation Zrotation Yrotation
			JOINT neck
			{
				OFFSET 0.000000 10.207942 -0.272212 
				CHANNELS 3 Xrotation Zrotation Yrotation
				JOINT head
				{
					OFFSET 0.000000 3.130431 0.000000 
					CHANNELS 3 Xrotation Zrotation Yrotation
					End Site
					{
						OFFSET 0.000000 3.130435 0.000000 
					}
				}
			}
			JOINT lCollar
			{
				OFFSET 3.470700 6.669187 -0.816635 
				CHANNELS 3 Yrotation Zrotation Xrotation
				JOINT lShldr
				{
					OFFSET 3.198488 0.000000 0.000000 
					CHANNELS 3 Zrotation Yrotation Xrotation
					JOINT lForeArm
					{
						OFFSET 10.139888 0.000000 0.000000 
						CHANNELS 3 Yrotation Zrotation Xrotation
						JOINT lHand
						{
							OFFSET 8.370511 0.000000 0.000000 
							CHANNELS 3 Zrotation Yrotation Xrotation
							End Site
							{
								OFFSET 4.083176 0.000000 0.000000 
							}
						}
					}
				}
			}
			JOINT rCollar
			{
				OFFSET -3.470700 6.669187 -0.816635 
				CHANNELS 3 Yrotation Zrotation Xrotation
				JOINT rShldr
				{
					OFFSET -3.198488 0.000000 0.000000 
					CHANNELS 3 Zrotation Yrotation Xrotation
					JOINT rForeArm
					{
						OFFSET -10.139888 0.000000 0.000000 
						CHANNELS 3 Yrotation Zrotation Xrotation
						JOINT rHand
						{
							OFFSET -8.370511 0.000000 0.000000 
							CHANNELS 3 Zrotation Yrotation Xrotation
							End Site
							{
								OFFSET -4.083176 0.000000 0.000000 
							}
						}
					}
				}
			}
		}
	}
	JOINT lThigh
	{
		OFFSET 5.308129 -1.633274 1.361059 
		CHANNELS 3 Xrotation Zrotation Yrotation
		JOINT lShin
		{
			OFFSET -2.041588 -20.007561 0.000000 
			CHANNELS 3 Xrotation Zrotation Yrotation
			JOINT lFoot
			{
				OFFSET 0.000000 -19.190928 -1.224953 
				CHANNELS 3 Xrotation Yrotation Zrotation
				End Site
				{
					OFFSET 0.000000 -2.449906 4.627600 
				}
			}
		}
	}
	JOINT rThigh
	{
		OFFSET -5.308129 -1.633274 1.361059 
		CHANNELS 3 Xrotation Zrotation Yrotation
		JOINT rShin
		{
			OFFSET 2.041588 -20.007561 0.000000 
			CHANNELS 3 Xrotation Zrotation Yrotation
			JOINT rFoot
			{
				OFFSET 0.000000 -19.190928 -1.224953 
				CHANNELS 3 Xrotation Yrotation Zrotation
				End Site
				{
					OFFSET 0.000000 -2.449906 4.627600 
				}
			}
		}
	}
}
MOTION
Frames: 14
Frame Time: 0.016667
2.649667 46.248199 -0.950373 10.728757 5.560003 -2.756767 12.076006 -4.372137 5.797870 -5.572202 -0.223177 6.474636 19.962593 -14.821355 -1.153677 -18.576778 15.030036 48.677353 5.279430 15.529299 23.054562 -67.526726 -20.732317 11.070966 -84.068535 21.386749 53.339008 -56.688660 -54.131119 34.028366 -8.533005 -3.086082 24.148115 37.616264 30.424114 90.631126 -14.016932 -52.668625 -84.479897 37.660870 60.423618 39.128136 -9.633752 1.901321 17.396805 35.068203 -10.524368 -3.820468 -14.911364 10.510871 -1.019341 -43.737858 -27.039293 -5.713265 69.102737 6.475097 6.851989 3.120286 -13.514229 16.929150 
2.530033 46.559460 -0.883711 10.606342 5.326495 -2.617912 12.076006 -4.372137 5.797870 -5.820870 0.164928 6.562529 21.236687 -16.382708 -1.303908 -18.615511 15.661019 49.225426 6.922449 13.813485 22.738382 -67.392426 -18.744772 10.989064 -79.298363 21.861618 52.947910 -54.883518 -56.122375 33.341991 -7.041634 -3.469720 24.189327 37.000587 33.522423 89.358261 -14.569605 -53.120987 -80.379669 35.027630 61.260643 34.924541 -8.337565 1.541654 17.339806 32.631115 -9.870409 -3.524122 -13.764167 10.663888 -2.022085 -41.966305 -27.456066 -5.977746 67.328056 6.864986 6.765635 3.437858 -12.260149 16.992558 
2.369951 46.796635 -0.769805 10.558963 5.269549 -2.205912 12.076006 -4.372137 5.797870 -6.321150 0.145525 6.562529 22.795496 -17.641588 -1.395875 -18.765554 16.130461 49.275032 8.427217 12.309348 22.571243 -67.193916 -16.550661 10.921695 -75.617554 22.124111 51.965008 -53.199142 -57.558231 32.442997 -5.606490 -3.748617 24.284868 36.068050 36.351070 88.071976 -15.675101 -54.185574 -76.870811 31.805695 62.013268 29.865303 -7.043469 1.137829 17.293467 30.317673 -9.418536 -3.297743 -12.841739 10.640669 -2.885246 -39.637363 -27.889544 -6.288996 64.366730 7.187032 6.558733 3.637286 -10.552178 17.174000 
2.209800 47.033520 -0.655904 10.520206 5.222061 -1.793911 12.076006 -4.372137 5.797870 -6.832310 0.116420 6.562526 24.368563 -18.900089 -1.519459 -18.932898 16.590614 49.314663 9.918479 10.808860 22.446215 -66.995834 -14.353704 10.866213 -71.924721 22.321819 50.962139 -51.389954 -58.980194 31.417078 -4.174021 -4.016726 24.379639 35.015831 39.164402 86.666130 -16.714069 -55.285164 -73.311684 28.348225 62.629719 24.580349 -5.734590 0.746886 17.247557 28.016932 -8.964592 -3.065422 -11.939194 10.576143 -3.760251 -37.293480 -28.299465 -6.612301 61.408344 7.490918 6.350899 3.850522 -8.850451 17.337164 
2.018735 47.141956 -0.544194 11.114743 5.155682 -0.852315 12.076006 -4.372137 5.797870 -8.068827 -0.106728 6.513679 25.964443 -19.807526 -1.578540 -19.130840 16.790083 48.933395 10.893251 9.675928 22.449659 -66.843086 -12.087964 10.864924 -69.209045 22.562021 49.778465 -51.045734 -60.261364 31.802031 -3.116064 -4.259957 24.460747 33.637039 41.610600 85.229385 -18.515335 -57.074009 -70.632751 24.646595 63.008461 18.983170 -5.560005 0.484575 17.153866 26.586779 -8.472657 -2.833648 -11.297397 10.076883 -4.380126 -35.165005 -28.709932 -6.895963 57.777527 7.803702 6.086139 4.592259 -7.131803 18.079748 
1.827599 47.250160 -0.432462 11.697248 5.068353 0.088410 12.076006 -4.372137 5.797870 -9.304962 -0.329920 6.464904 27.573149 -20.704834 -1.672173 -19.327856 16.986801 48.558369 11.876207 8.551517 22.468929 -66.706635 -9.820682 10.883151 -66.487503 22.751925 48.577110 -50.734188 -61.539036 32.217155 -2.052072 -4.510790 24.556732 32.121914 44.032764 83.661522 -20.205912 -58.903046 -67.894768 20.854445 63.208366 13.300102 -5.376963 0.222481 17.078453 25.168371 -7.983284 -2.607437 -10.669034 9.551343 -5.001887 -33.012165 -29.095711 -7.171957 54.134434 8.114683 5.810422 5.321332 -5.437352 18.837490 
1.603149 47.252831 -0.309549 12.396819 4.949916 1.294365 12.076006 -4.372137 5.797870 -10.624975 -0.698774 6.377310 28.919195 -21.475348 -1.744482 -19.477621 17.147816 48.163113 12.516384 7.534644 22.578857 -66.308777 -7.654882 10.827100 -64.401634 22.840124 47.410599 -51.393467 -62.466091 33.416225 -1.092298 -4.506638 24.648598 30.038925 45.904251 81.888130 -22.791124 -61.138622 -66.957253 18.369013 62.888275 8.879444 -5.874209 0.241618 17.069138 24.863644 -7.621361 -2.510500 -10.372092 8.658696 -5.133160 -31.030058 -29.271387 -7.347829 50.734608 8.075392 5.448726 6.129659 -3.934895 19.794374 
1.378651 47.255260 -0.186691 13.101123 4.809860 2.509205 12.076006 -4.372137 5.797870 -11.933205 -1.058027 6.299733 30.271654 -22.255426 -1.826161 -19.633528 17.298920 47.773769 13.151668 6.517498 22.695232 -65.919739 -5.485920 10.792635 -62.304356 22.894554 46.241550 -52.148800 -63.375965 34.719376 -0.136895 -4.513002 24.743368 27.812120 47.725746 79.969170 -25.474243 -63.402073 -66.173134 15.989193 62.478642 4.574717 -6.368849 0.269137 17.059591 24.556854 -7.258990 -2.414306 -10.073780 7.725295 -5.258280 -29.038973 -29.448101 -7.558767 47.343307 8.000520 5.135126 6.888016 -2.490182 20.737999 
1.133478 47.155071 -0.087798 13.889754 4.618818 3.792171 12.076006 -4.372137 5.797870 -13.140451 -1.397994 6.212655 30.748856 -22.869858 -1.877242 -19.564371 17.597857 47.726067 13.742510 5.494201 22.860277 -65.321693 -3.593411 10.677789 -60.723675 22.736143 45.243797 -52.696365 -63.748764 35.589615 0.819880 -4.634506 24.846567 25.510954 49.151138 78.117744 -29.215878 -65.498123 -67.793114 15.295413 61.714100 2.110927 -7.622348 0.612894 17.115515 25.496006 -7.064186 -2.433954 -10.201576 6.640553 -4.901525 -28.033640 -29.507011 -7.629343 45.538406 7.733356 4.861792 6.882842 -1.536412 21.411701 
0.888324 47.054840 0.011010 14.676333 4.396902 5.063877 12.076006 -4.372137 5.797870 -14.348007 -1.747749 6.135608 31.227598 -23.494001 -1.928555 -19.498615 17.900726 47.671204 14.330603 4.471242 23.033630 -64.727211 -1.694705 10.584391 -59.148285 22.556293 44.257217 -53.281967 -64.112106 36.496983 1.786356 -4.748714 24.954245 23.065693 50.535877 76.106674 -33.430161 -67.533836 -69.903534 14.695584 60.947739 -0.263694 -8.893914 0.965522 17.155125 26.448088 -6.860979 -2.499485 -10.320655 5.561181 -4.523015 -27.031088 -29.569866 -7.710539 43.736553 7.450581 4.603304 6.859287 -0.590597 22.103510 
0.652139 46.934124 0.072308 14.956450 4.254203 5.973882 12.076006 -4.372137 5.797870 -14.659174 -1.932410 6.087427 30.503441 -24.040024 -1.980077 -19.308138 18.469065 48.170120 15.028433 3.104634 23.323538 -63.853111 -0.087763 10.346540 -57.897152 22.288568 42.751850 -53.518543 -63.953651 36.898354 2.923486 -4.899858 24.969648 20.404305 51.557476 74.048454 -38.337730 -68.977135 -73.579971 15.115666 60.262337 -1.240463 -9.959817 1.522989 17.261351 27.972971 -6.822388 -2.569271 -10.599147 4.567072 -4.024141 -26.850529 -29.631870 -7.753418 43.944073 7.304326 4.591026 6.047291 -0.207074 22.263723 
0.416056 46.813423 0.133542 15.230254 4.101274 6.873448 12.076006 -4.372137 5.797870 -14.971052 -2.126813 6.039320 29.761272 -24.576527 -2.009973 -19.104218 19.043596 48.675659 15.727762 1.753574 23.636398 -62.987007 1.521138 10.133518 -56.651443 22.000326 41.258038 -53.753460 -63.795231 37.299217 4.070548 -5.045533 24.996069 17.622202 52.519688 71.866386 -43.792942 -70.297653 -77.820511 15.568902 59.589302 -2.179739 -11.018661 2.075676 17.376007 29.490725 -6.787408 -2.658215 -10.870084 3.571669 -3.508940 -26.677460 -29.713451 -7.795835 44.149662 7.167685 4.581895 5.266505 0.162476 22.433311 
0.224222 46.698685 0.166679 14.970385 4.405961 7.453817 12.076006 -4.372137 5.797870 -14.384776 -2.525343 5.962842 27.930275 -24.839893 -2.027035 -18.763182 19.788477 49.634193 16.677155 0.597488 23.918251 -62.455292 2.807118 10.036399 -55.529209 21.746338 39.679867 -53.671738 -63.737011 37.516907 5.333539 -5.450911 24.987949 15.003160 53.359192 69.829826 -48.968418 -70.947403 -82.213509 16.372953 59.157513 -2.392944 -11.423954 2.254894 17.388750 30.828209 -6.880726 -2.752227 -11.167779 3.015858 -3.149105 -27.030752 -30.301834 -8.034761 45.714371 7.186543 4.742446 4.574851 0.547105 22.135477 
0.032376 46.583946 0.199798 14.716761 4.709380 8.035120 12.076006 -4.372137 5.797870 -13.806195 -2.914266 5.886171 26.094851 -25.103401 -2.031194 -18.412235 20.524254 50.610413 17.629627 -0.549663 24.218239 -61.929211 4.097296 9.962667 -54.414063 21.461843 38.101307 -53.608353 -63.673817 37.762970 6.593330 -5.846478 24.991978 12.271992 54.144943 67.688454 -54.390156 -71.456718 -86.851860 17.201509 58.724403 -2.578384 -11.799618 2.427288 17.417963 32.185638 -6.969001 -2.850127 -11.458358 2.462599 -2.768217 -27.382193 -30.907293 -8.265189 47.268250 7.198861 4.919845 3.902640 0.952498 21.836565 
